<?xml version="1.0" encoding="UTF-8" standalone="no"?>
<svg
   id="Layer_1"
   data-name="Layer 1"
   viewBox="0 0 122.87503 77.457163"
   version="1.1"
   sodipodi:docname="rfid-icon.svg"
   inkscape:version="1.2.2 (b0a84865, 2022-12-01)"
   width="122.87503"
   height="77.457161"
   xmlns:inkscape="http://www.inkscape.org/namespaces/inkscape"
   xmlns:sodipodi="http://sodipodi.sourceforge.net/DTD/sodipodi-0.dtd"
   xmlns="http://www.w3.org/2000/svg"
   xmlns:svg="http://www.w3.org/2000/svg">
  <defs
     id="defs60" />
  <sodipodi:namedview
     id="namedview58"
     pagecolor="#ffffff"
     bordercolor="#000000"
     borderopacity="0.25"
     inkscape:showpageshadow="2"
     inkscape:pageopacity="0.0"
     inkscape:pagecheckerboard="0"
     inkscape:deskcolor="#d1d1d1"
     showgrid="false"
     inkscape:zoom="8.4166532"
     inkscape:cx="61.366435"
     inkscape:cy="40.099074"
     inkscape:window-width="1390"
     inkscape:window-height="1205"
     inkscape:window-x="3084"
     inkscape:window-y="131"
     inkscape:window-maximized="0"
     inkscape:current-layer="Layer_1" />
  <path
    fill="white"
     d="m 62.192865,48.516452 c 5.143695,-0.427579 9.080667,-4.760506 9.014871,-9.921521 -0.0658,-5.161014 -4.111948,-9.392168 -9.264871,-9.688479 h -1 c -5.210092,0.288155 -9.287157,4.596948 -9.287157,9.815 0,5.218052 4.077065,9.526845 9.287157,9.815 h 1.25 z m -20.62,-26.75 c 1.515877,-1.870353 1.291136,-4.602498 -0.51,-6.2 l -0.29,-0.23 c -0.898214,-0.677589 -2.021875,-0.985344 -3.14,-0.86 -1.121802,0.11451 -2.158299,0.650629 -2.9,1.5 -0.08094,0.07632 -0.154595,0.160011 -0.22,0.25 -2.695101,3.289215 -4.870338,6.971941 -6.45,10.92 -2.985906,7.468819 -3.007368,15.795889 -0.06,23.28 1.573617,3.962681 3.764004,7.651577 6.49,10.93 1.564255,1.919564 4.387274,2.210367 6.31,0.65 v 0 c 1.920772,-1.567853 2.211437,-4.394008 0.65,-6.32 v 0 c -2.089141,-2.511205 -3.775882,-5.331437 -5,-8.36 -1.086063,-2.705959 -1.646068,-5.594227 -1.65,-8.51 0.02613,-2.935531 0.606292,-5.839733 1.71,-8.56 1.248569,-3.073448 2.961886,-5.936845 5.08,-8.49 z m -19.17,-14.23 c 0.07152,-0.069522 0.135228,-0.1466457 0.19,-0.23 1.49771,-1.8254004 1.308978,-4.5027596 -0.43,-6.1 -0.06586,-0.07445 -0.139628,-0.1415118 -0.22,-0.2 -1.861267,-1.51595803 -4.586647,-1.29545796 -6.18,0.5 -4.943385,5.4474729 -8.9691359,11.661719 -11.9199995,18.4 -2.6043016,6.023716 -3.91261687,12.527815 -3.84000002,19.09 0.13804825,6.577109 1.66116962,13.051227 4.47000002,19 3.1713104,6.655699 7.4031295,12.751816 12.5299995,18.05 l 0.11,0.11 c 1.715132,1.702748 4.47171,1.738145 6.23,0.08 l 0.11,-0.1 c 0.792929,-0.803391 1.259698,-1.872328 1.31,-3 0.03584,-1.189572 -0.403108,-2.344521 -1.22,-3.21 -4.405345,-4.541823 -8.057912,-9.757364 -10.82,-15.45 -2.331968,-4.873909 -3.6000513,-10.188272 -3.7199995,-15.59 -0.041037,-5.408862 1.0595995,-10.765524 3.2299995,-15.72 2.540031,-5.716165 5.972897,-10.992045 10.17,-15.63 z m 58.91,14.23 c -1.515877,-1.870353 -1.291136,-4.602498 0.51,-6.2 l 0.28,-0.23 c 1.875924,-1.393608 4.507179,-1.11526 6.05,0.64 0.08046,0.07395 0.151048,0.157978 0.21,0.25 2.701625,3.286456 4.88054,6.9697 6.46,10.92 2.989122,7.467544 3.01416,15.794616 0.07,23.28 -1.573617,3.962681 -3.764004,7.651577 -6.49,10.93 -1.564255,1.919564 -4.387274,2.210367 -6.31,0.65 v 0 c -0.918023,-0.745644 -1.503956,-1.824048 -1.63,-3 -0.112534,-1.188596 0.24662,-2.373802 1,-3.3 v 0 c 2.089141,-2.511205 3.775882,-5.331437 5,-8.36 1.086063,-2.705959 1.646068,-5.594227 1.65,-8.51 -0.02613,-2.935531 -0.606292,-5.839733 -1.71,-8.56 -1.248569,-3.073448 -2.961886,-5.936845 -5.08,-8.49 z m 19.170005,-14.23 c -0.0715,-0.069522 -0.13523,-0.1466457 -0.19,-0.23 -1.497715,-1.8254004 -1.308983,-4.5027596 0.43,-6.1 0.0659,-0.07445 0.13963,-0.1415118 0.22,-0.2 1.86127,-1.51595803 4.58665,-1.29545796 6.18,0.5 4.92919,5.4503657 8.94133,11.66445 11.88,18.4 2.6146,6.021484 3.93315,12.525671 3.87,19.09 -0.13492,6.576386 -1.65462,13.05047 -4.46,19 -3.17293,6.637309 -7.40113,12.716198 -12.52,18 l -0.11,0.11 c -1.71513,1.702748 -4.47171,1.738145 -6.230005,0.08 l -0.11,-0.1 c -0.792929,-0.803391 -1.259698,-1.872328 -1.31,-3 -0.03584,-1.189572 0.403108,-2.344521 1.22,-3.21 4.399185,-4.533461 8.048225,-9.738662 10.810005,-15.42 2.34579,-4.870842 3.62755,-10.185345 3.76,-15.59 0.041,-5.408862 -1.0596,-10.765524 -3.23,-15.72 -2.5541,-5.711793 -6.00049,-10.980958 -10.21,-15.61 z"
     id="path55"
     sodipodi:nodetypes="csccsccccccccccccsssscccccccccccccccccccccccccccccccsscssccccccccccccccccccccccc" />
</svg>
