<?xml version="1.0" encoding="UTF-8" standalone="no"?>
<svg
   version="1.1"
   width="73.730003"
   height="90"
   viewBox="0 0 73.730003 90"
   xml:space="preserve"
   id="svg70"
   sodipodi:docname="sound-waves.svg"
   inkscape:version="1.2.2 (b0a84865, 2022-12-01)"
   xmlns:inkscape="http://www.inkscape.org/namespaces/inkscape"
   xmlns:sodipodi="http://sodipodi.sourceforge.net/DTD/sodipodi-0.dtd"
   xmlns="http://www.w3.org/2000/svg"
   xmlns:svg="http://www.w3.org/2000/svg"><defs
   id="defs74" /><sodipodi:namedview
   id="namedview72"
   pagecolor="#ffffff"
   bordercolor="#000000"
   borderopacity="0.25"
   inkscape:showpageshadow="2"
   inkscape:pageopacity="0.0"
   inkscape:pagecheckerboard="0"
   inkscape:deskcolor="#d1d1d1"
   showgrid="false"
   inkscape:zoom="1.84375"
   inkscape:cx="55.864407"
   inkscape:cy="64"
   inkscape:window-width="1309"
   inkscape:window-height="456"
   inkscape:window-x="0"
   inkscape:window-y="38"
   inkscape:window-maximized="0"
   inkscape:current-layer="svg70" />
<g
   fill="#ffffff"
   id="g68"
   transform="translate(-8.135)">
	<path
   d="m 10.135,55.135 c -1.104,0 -2,-0.896 -2,-2 v -16.27 c 0,-1.104 0.896,-2 2,-2 1.104,0 2,0.896 2,2 v 16.27 c 0,1.104 -0.895,2 -2,2 z"
   id="path54" />
	<path
   d="m 21.757,72.567 c -1.104,0 -2,-0.896 -2,-2 V 19.433 c 0,-1.104 0.896,-2 2,-2 1.104,0 2,0.896 2,2 v 51.135 c 0,1.104 -0.896,1.999 -2,1.999 z"
   id="path56" />
	<path
   d="m 33.378,90 c -1.104,0 -2,-0.896 -2,-2 V 2 c 0,-1.104 0.896,-2 2,-2 1.104,0 2,0.896 2,2 v 86 c 0,1.104 -0.895,2 -2,2 z"
   id="path58" />
	<path
   d="m 45,72.567 c -1.104,0 -2,-0.896 -2,-2 V 19.433 c 0,-1.104 0.896,-2 2,-2 1.104,0 2,0.896 2,2 v 51.135 c 0,1.104 -0.896,1.999 -2,1.999 z"
   id="path60" />
	<path
   d="m 56.622,55.135 c -1.104,0 -2,-0.896 -2,-2 v -16.27 c 0,-1.104 0.896,-2 2,-2 1.104,0 2,0.896 2,2 v 16.27 c 0,1.104 -0.895,2 -2,2 z"
   id="path62" />
	<path
   d="m 68.243,72.567 c -1.104,0 -2,-0.896 -2,-2 V 19.433 c 0,-1.104 0.896,-2 2,-2 1.104,0 2,0.896 2,2 v 51.135 c 0,1.104 -0.895,1.999 -2,1.999 z"
   id="path64" />
	<path
   d="m 79.865,55.135 c -1.104,0 -2,-0.896 -2,-2 v -16.27 c 0,-1.104 0.896,-2 2,-2 1.104,0 2,0.896 2,2 v 16.27 c 0,1.104 -0.895,2 -2,2 z"
   id="path66" />
</g>
</svg>
